# xmcd
#
# Track frame offsets: 
#        150
#        12912
#        28785
#        43608
#        58956
#        72579
#        86277
#        101175
#        112773
#        132921
#        148946
#        165060
#
# Disc length: 2264 seconds
#
# Revision: 0
# Processed by: cddbd v1.5.2PL0 Copyright (c) Steve Scherf et al.
# Submitted via: ExactAudioCopy v0.95b4
#
DISCID=a008d60c
DTITLE=Flying W Wranglers - Somebody's Prayin'
DYEAR=2007
DGENRE=Country
TTITLE0=I'll Fly Away
TTITLE1=Somebody's Prayin'
TTITLE2=Hills of Glory
TTITLE3=Father to Father
TTITLE4=Medley - Unclouded Day_I Saw the Light_Will the Circle
TTITLE5=Mystery of His Way
TTITLE6=In the Garden
TTITLE7=Joshua
TTITLE8=Way Faring Stranger
TTITLE9=What a Friend
TTITLE10=Farther Along
TTITLE11=I'll Fly Away (Chorus)
EXTD=
EXTT0=
EXTT1=
EXTT2=
EXTT3=
EXTT4=
EXTT5=
EXTT6=
EXTT7=
EXTT8=
EXTT9=
EXTT10=
EXTT11=
PLAYORDER=
